<?xml version="1.0" encoding="UTF-8" standalone="no"?>
<svg
   xmlns:dc="http://purl.org/dc/elements/1.1/"
   xmlns:cc="http://creativecommons.org/ns#"
   xmlns:rdf="http://www.w3.org/1999/02/22-rdf-syntax-ns#"
   xmlns:svg="http://www.w3.org/2000/svg"
   xmlns="http://www.w3.org/2000/svg"
   xmlns:sodipodi="http://sodipodi.sourceforge.net/DTD/sodipodi-0.dtd"
   xmlns:inkscape="http://www.inkscape.org/namespaces/inkscape"
   width="44.635208mm"
   height="11.985625mm"
   viewBox="0 0 44.635208 11.985625"
   version="1.1"
   id="svg8"
   inkscape:version="1.0.1 (3bc2e813f5, 2020-09-07)"
   sodipodi:docname="IsoType Light.svg">
  <defs
     id="defs2">
	
	
</defs>
  <sodipodi:namedview
     id="base"
     pagecolor="#ffffff"
     bordercolor="#666666"
     borderopacity="1.0"
     inkscape:pageopacity="0.0"
     inkscape:pageshadow="2"
     inkscape:zoom="3.959798"
     inkscape:cx="85.673415"
     inkscape:cy="13.969156"
     inkscape:document-units="mm"
     inkscape:current-layer="layer1"
     inkscape:document-rotation="0"
     showgrid="false"
     fit-margin-top="0"
     fit-margin-left="0"
     fit-margin-right="0"
     fit-margin-bottom="0"
     inkscape:window-width="1920"
     inkscape:window-height="991"
     inkscape:window-x="2391"
     inkscape:window-y="295"
     inkscape:window-maximized="1" />
  <metadata
     id="metadata5">
    <rdf:RDF>
      <cc:Work
         rdf:about="">
        <dc:format>image/svg+xml</dc:format>
        <dc:type
           rdf:resource="http://purl.org/dc/dcmitype/StillImage" />
        <dc:title></dc:title>
      </cc:Work>
    </rdf:RDF>
  </metadata>
  <g
     inkscape:label="Layer 1"
     inkscape:groupmode="layer"
     id="layer1"
     transform="translate(-122.81202,-69.020342)">
    <g
       id="g901"
       transform="matrix(0.26458333,0,0,0.26458333,86.087858,23.644301)">
		<path
   class="st0"
   d="m 189.4,204.9 c 0.5,-0.2 0.9,-0.4 1.4,-0.6 1.2,-0.6 2.4,-1.3 3.6,-1.9 l -7.7,-9.9 c -0.6,-1.1 -1.1,-1.6 -1.1,-1.6 v -0.1 c 3.4,-1.3 5.4,-4.9 5.4,-8.7 0,-4.2 -2,-7.3 -5.2,-8.7 -1.4,-0.6 -3,-0.9 -6.4,-0.9 H 169 v 31.8 h 5.8 v -11.9 h 5.6 z m -14.6,-17.5 v -10 h 4.4 c 4.5,0 5.8,1.9 5.8,4.9 0,3.2 -1.9,5 -5,5 h -5.2 z"
   id="path887" />

		<path
   class="st1"
   d="m 205.2,183.9 c 7.8,0 11.7,4.3 11.7,4.3 l -2.8,4.3 c 0,0 -3.6,-3.4 -8.7,-3.4 -6.7,0 -10.7,5 -10.7,10.9 0,6.1 4.1,11.4 10.7,11.4 5.5,0 9.2,-4 9.2,-4 l 3,4.2 c 0,0 -4.4,5.2 -12.5,5.2 -9.7,0 -16.4,-7.2 -16.4,-16.6 0.1,-9.2 7.1,-16.3 16.5,-16.3 z"
   id="path889" />

		<path
   class="st2"
   d="m 219.1,176.5 h -10.4 v -5 h 26.7 v 5 H 225 v 26.8 h -5.8 v -26.8 z"
   id="path891" />

		<path
   class="st3"
   d="m 231.3,179.9 h 5.8 v 13.5 h 14.6 v -13.5 h 5.8 v 31.8 h -5.8 v -13.4 h -14.6 v 13.4 h -5.8 z"
   id="path893" />

		<path
   class="st1"
   d="m 272.5,174.7 h 4.2 l -9.9,37.9 h -4.2 z"
   id="path895" />

		<path
   class="st1"
   d="M 138.8,191.8 164,176 v 5.2 l -19.6,12.4 v 0.2 l 19.6,12.4 v 5.2 l -25.2,-15.7 z"
   id="path897" />

		<path
   class="st1"
   d="m 282.3,206.2 19.6,-12.4 v -0.2 L 282.3,181.2 V 176 l 25.2,15.7 v 3.9 l -25.2,15.7 z"
   id="path899" />

	</g>
  </g>
  <style
     type="text/css"
     id="style833">
	.st0{fill:#F58220;}
	.st1{fill:#2D2D2D;}
	.st2{fill:#ED0F69;}
	.st3{fill:#00C0AC;}
</style>
</svg>
